<?xml version="1.0" encoding="UTF-8" standalone="no"?>
<svg
   xmlns:dc="http://purl.org/dc/elements/1.1/"
   xmlns:cc="http://creativecommons.org/ns#"
   xmlns:rdf="http://www.w3.org/1999/02/22-rdf-syntax-ns#"
   xmlns:svg="http://www.w3.org/2000/svg"
   xmlns="http://www.w3.org/2000/svg"
   xmlns:sodipodi="http://sodipodi.sourceforge.net/DTD/sodipodi-0.dtd"
   xmlns:inkscape="http://www.inkscape.org/namespaces/inkscape"
   width="210mm"
   height="210mm"
   viewBox="0 0 210 210"
   version="1.1"
   id="svg885"
   inkscape:version="1.0.2-2 (e86c870879, 2021-01-15)"
   sodipodi:docname="luff-logo_w.svg">
  <defs
     id="defs879" />
  <sodipodi:namedview
     id="base"
     pagecolor="#ffffff"
     bordercolor="#666666"
     borderopacity="1.0"
     inkscape:pageopacity="0.0"
     inkscape:pageshadow="2"
     inkscape:zoom="0.35"
     inkscape:cx="661.24947"
     inkscape:cy="701.6037"
     inkscape:document-units="mm"
     inkscape:current-layer="layer1"
     inkscape:document-rotation="0"
     showgrid="false"
     inkscape:window-width="1500"
     inkscape:window-height="1198"
     inkscape:window-x="241"
     inkscape:window-y="89"
     inkscape:window-maximized="0" />
  <metadata
     id="metadata882">
    <rdf:RDF>
      <cc:Work
         rdf:about="">
        <dc:format>image/svg+xml</dc:format>
        <dc:type
           rdf:resource="http://purl.org/dc/dcmitype/StillImage" />
        <dc:title></dc:title>
      </cc:Work>
    </rdf:RDF>
  </metadata>
  <g
     inkscape:label="Слой 1"
     inkscape:groupmode="layer"
     id="layer1">
    <path
       style="fill:#ffffff;fill-opacity:1;stroke:none;stroke-width:0.264583px;stroke-linecap:butt;stroke-linejoin:miter;stroke-opacity:1"
       d="m 68.973718,65.513249 -29.09785,65.062091 29.6178,0.0324 0.0945,-2.57069 -21.2982,0.20045 z"
       id="path2196-9"
       sodipodi:nodetypes="cccccc" />
    <path
       style="fill:#007acc;fill-opacity:1;stroke:none;stroke-width:0.495394px;stroke-linecap:butt;stroke-linejoin:miter;stroke-opacity:1"
       d="M 146.99671,97.540248 71.82406,24.510709 c 13.21999,26.736445 18.58595,51.631645 6.77963,72.501109 7.60548,-0.3574 60.75686,-0.42788 68.39302,0.52843 z"
       id="path1131-7"
       sodipodi:nodetypes="cccc" />
    <path
       style="fill:#007acc;fill-opacity:0.802419;stroke:none;stroke-width:0.474213;stroke-linecap:butt;stroke-linejoin:miter;stroke-miterlimit:4;stroke-dasharray:none;stroke-opacity:1"
       d="m 8.0900581,152.55875 c 21.2472599,16.14615 52.5421599,23.08589 99.7377819,5.85612 40.08109,-15.0326 66.52893,-20.56405 93.13154,-11.53477 -27.58715,-16.52088 -63.72343,-7.93348 -101.510172,5.5012 -34.03412,13.8632 -64.19727,12.80487 -91.3591499,0.17747 z"
       id="path1135-7"
       sodipodi:nodetypes="cccccc" />
    <path
       style="fill:#007acc;fill-opacity:0.802419;stroke:none;stroke-width:0.473467px;stroke-linecap:butt;stroke-linejoin:miter;stroke-opacity:1"
       d="m 3.9007481,155.04317 c 28.8764399,12.24819 59.7406199,21.80549 108.9220319,6.56594 36.38038,-13.0952 67.80666,-16.64201 92.16478,-6.56594 -30.63519,-21.46045 -65.55341,-8.32867 -99.8989,0.17746 -44.933702,12.56781 -74.526832,7.84734 -101.1879119,-0.17746 z"
       id="path1137-7"
       sodipodi:nodetypes="ccccc" />
    <g
       aria-label="uff"
       transform="matrix(1.2914274,0,0,0.77433698,393.09524,-68.181151)"
       id="text837-5"
       style="font-style:italic;font-variant:normal;font-weight:normal;font-stretch:normal;font-size:45px;line-height:1.25;font-family:Consolas;-inkscape-font-specification:'Consolas Italic';fill:#ffffff;fill-opacity:1;stroke:none;stroke-width:0.366618">
      <path
         d="m -227.14896,245.94955 q -0.0879,0.41748 -0.19775,1.09864 -0.0879,0.68115 -0.21973,1.8457 -0.13183,1.14258 -0.32959,2.90039 -0.19775,1.73584 -0.46142,4.28467 h -3.60352 l 0.54932,-5.07568 q -1.51611,2.63671 -3.66944,4.06494 -2.13134,1.40625 -4.6582,1.40625 -3.49365,0 -4.96582,-2.10938 -1.45019,-2.10937 -0.61523,-6.19629 l 2.83447,-14.15039 h 3.82324 l -2.83447,14.10645 q -0.54932,2.65869 0.0659,3.86718 0.6372,1.2085 2.41699,1.2085 0.94482,0 1.86768,-0.43945 0.94482,-0.43946 1.82373,-1.2085 0.90087,-0.79101 1.69189,-1.82373 0.81299,-1.05469 1.47217,-2.26318 0.68115,-1.2085 1.16455,-2.50489 0.4834,-1.31835 0.74707,-2.61474 l 1.66992,-8.32764 h 3.82324 z"
         style="font-style:italic;font-variant:normal;font-weight:normal;font-stretch:normal;font-size:45px;font-family:Consolas;-inkscape-font-specification:'Consolas Italic';fill:#ffffff;fill-opacity:1;stroke-width:0.366618"
         id="path2416" />
      <path
         d="m -213.02054,256.47446 q -0.46142,2.28515 -1.29639,3.9331 -0.83496,1.66992 -2.13134,2.74658 -1.27442,1.09864 -3.0542,1.62598 -1.75781,0.52734 -4.08692,0.52734 -0.43945,0 -1.05468,-0.022 -0.61524,-0.022 -1.05469,-0.0659 l 0.61523,-3.29589 q 1.01075,0.13183 1.88965,0.13183 2.61475,0 4.17481,-1.34033 1.56006,-1.34033 2.13134,-4.24072 l 3.22998,-16.06201 h -7.09716 l 0.6372,-3.18604 h 7.09717 l 0.7251,-3.64746 q 0.87891,-4.37256 3.42773,-6.5918 2.54883,-2.21924 7.14112,-2.21924 1.16455,0 2.54883,0.13184 1.40625,0.13184 2.76855,0.39551 l -0.68115,3.25195 q -1.25244,-0.28564 -2.52686,-0.43945 -1.25244,-0.15381 -2.50488,-0.15381 -2.61475,0 -4.17481,1.40625 -1.56005,1.40625 -2.13134,4.21875 l -0.7251,3.64746 h 9.68994 l -0.63721,3.18604 h -9.66797 z M -223.4136,234.0184 Z"
         style="font-style:italic;font-variant:normal;font-weight:normal;font-stretch:normal;font-size:45px;font-family:Consolas;-inkscape-font-specification:'Consolas Italic';fill:#ffffff;fill-opacity:1;stroke-width:0.366618"
         id="path2418" />
      <path
         d="m -188.27933,256.47446 q -0.46142,2.28515 -1.29638,3.9331 -0.83497,1.66992 -2.13135,2.74658 -1.27442,1.09864 -3.0542,1.62598 -1.75781,0.52734 -4.08692,0.52734 -0.43945,0 -1.05468,-0.022 -0.61524,-0.022 -1.05469,-0.0659 l 0.61523,-3.29589 q 1.01075,0.13183 1.88965,0.13183 2.61475,0 4.17481,-1.34033 1.56006,-1.34033 2.13135,-4.24072 l 3.22998,-16.06201 h -7.09717 l 0.6372,-3.18604 h 7.09717 l 0.7251,-3.64746 q 0.87891,-4.37256 3.42773,-6.5918 2.54883,-2.21924 7.14112,-2.21924 1.16455,0 2.54883,0.13184 1.40625,0.13184 2.76855,0.39551 l -0.68115,3.25195 q -1.25244,-0.28564 -2.52686,-0.43945 -1.25244,-0.15381 -2.50488,-0.15381 -2.61475,0 -4.1748,1.40625 -1.56006,1.40625 -2.13135,4.21875 l -0.7251,3.64746 h 9.68994 l -0.63721,3.18604 h -9.66796 z m -10.39306,-22.45606 z"
         style="font-style:italic;font-variant:normal;font-weight:normal;font-stretch:normal;font-size:45px;font-family:Consolas;-inkscape-font-specification:'Consolas Italic';fill:#ffffff;fill-opacity:1;stroke-width:0.366618"
         id="path2420" />
    </g>
  </g>
</svg>
