<?xml version="1.0" encoding="UTF-8" standalone="no"?>
<svg
   width="1000"
   height="1000"
   viewBox="0 0 1000 1000"
   version="1.1"
   id="svg15"
   sodipodi:docname="luff-logo-2.svg"
   xml:space="preserve"
   inkscape:version="1.4 (86a8ad7, 2024-10-11)"
   xmlns:inkscape="http://www.inkscape.org/namespaces/inkscape"
   xmlns:sodipodi="http://sodipodi.sourceforge.net/DTD/sodipodi-0.dtd"
   xmlns:xlink="http://www.w3.org/1999/xlink"
   xmlns="http://www.w3.org/2000/svg"
   xmlns:svg="http://www.w3.org/2000/svg"><sodipodi:namedview
     id="namedview15"
     pagecolor="#ffffff"
     bordercolor="#000000"
     borderopacity="0.25"
     inkscape:showpageshadow="2"
     inkscape:pageopacity="0.0"
     inkscape:pagecheckerboard="0"
     inkscape:deskcolor="#d1d1d1"
     inkscape:zoom="1.175"
     inkscape:cx="489.78723"
     inkscape:cy="571.48936"
     inkscape:window-width="2560"
     inkscape:window-height="1377"
     inkscape:window-x="-8"
     inkscape:window-y="-8"
     inkscape:window-maximized="1"
     inkscape:current-layer="svg15" /><path
     fill="#4DB36C"
     d="M654.523 397.808C656.908 397.41 666.088 401.319 668.797 402.394C695.477 413.041 721.327 425.662 746.131 440.151C754.15 444.793 764.025 450.283 771.394 455.89C773.435 460.783 775.958 471.641 777.162 476.993C784.281 508.652 790.006 546.659 790.485 579.143C791.122 609.157 789.351 633.068 785.498 662.61C781.116 658.972 776.331 655.847 771.238 653.298C729.781 632.255 675.813 639.182 633.122 652.928C647.396 613.839 657.147 555.283 658.809 513.628C661.979 486.135 659.187 426.052 654.523 397.808Z"
     id="path2" /><path
     fill="#91D085"
     d="M654.523 397.808C656.908 397.41 666.088 401.319 668.797 402.394C695.477 413.041 721.327 425.662 746.131 440.151C754.15 444.793 764.025 450.283 771.394 455.89C773.435 460.783 775.958 471.641 777.162 476.993C784.281 508.652 790.006 546.659 790.485 579.143C785.628 574.982 777.714 569.695 772.37 566.152C743.633 547.101 712.392 531.743 679.861 520.347C675.153 518.697 663.513 513.966 658.809 513.628C661.979 486.135 659.187 426.052 654.523 397.808Z"
     id="path3" /><path
     fill="#11253F"
     d="M808.524 680.871C809.619 680.626 809.543 680.604 810.619 680.896C810.698 682.959 794.188 707.282 791.82 710.373C772.614 735.45 747.542 764.622 720.902 782.111C705.017 778.491 680.345 775.005 664.344 772.984C560.692 759.889 453.955 765.421 351.303 783.903C324.08 788.805 294.912 794.409 268.215 801.662L263.48 798.204C255.778 792.699 248.554 786.387 241.373 780.219C253.177 776.6 270.37 772.815 282.621 769.843C318.16 761.293 353.869 753.462 389.725 746.354C528.291 718.363 668.027 696.514 808.524 680.871Z"
     id="path4" /><path
     fill="#D5F3C8"
     d="M594.398 175.248C663.907 241.486 723.708 323.476 757.588 413.644C760.163 420.498 771.055 449.792 771.394 455.89C764.025 450.283 754.15 444.793 746.131 440.151C721.327 425.662 695.477 413.041 668.797 402.394C666.088 401.319 656.908 397.41 654.523 397.808C653.399 391.691 652.587 384.216 651.665 377.943C650.057 367.307 648.248 356.703 646.237 346.136C636.702 296.807 622.887 248.403 604.948 201.473C601.786 193.35 598.042 183.033 594.398 175.248Z"
     id="path5" /><defs
     id="defs6"><linearGradient
       id="linearGradient15"
       inkscape:collect="always"><stop
         style="stop-color:#399193;stop-opacity:1;"
         offset="0"
         id="stop15" /><stop
         style="stop-color:#40bdbf;stop-opacity:1;"
         offset="0.5"
         id="stop17" /><stop
         style="stop-color:#4eb36d;stop-opacity:1;"
         offset="1"
         id="stop16" /></linearGradient><linearGradient
       id="gradient_0"
       gradientUnits="userSpaceOnUse"
       x1="260.23425"
       y1="766.90234"
       x2="285.32016"
       y2="454.12213"><stop
         offset="0"
         stop-color="#309BC4"
         id="stop5" /><stop
         offset="1"
         stop-color="#53CECC"
         id="stop6" /></linearGradient><linearGradient
       inkscape:collect="always"
       xlink:href="#linearGradient15"
       id="linearGradient16"
       x1="80.8977"
       y1="830.71591"
       x2="885.127"
       y2="830.71591"
       gradientUnits="userSpaceOnUse" /></defs><path
     fill="url(#gradient_0)"
     d="M248.933 450.278C250.009 451.051 249.538 467.826 249.542 470.195C249.559 480.421 249.512 490.678 249.507 500.904L249.523 718.754C278.182 711.053 306.994 703.932 335.94 697.394C335.886 708.979 335.482 720.38 335.498 732.085C321.877 735.207 308.301 738.52 294.773 742.025C267.355 749.731 240.25 756.711 212.699 764.725C213.114 745.937 212.677 724.874 212.625 705.931L212.544 609.28C212.438 560.278 213.427 509.683 212.547 460.896C224.074 457.984 237.325 453.703 248.933 450.278Z"
     id="path6" /><path
     fill="#399193"
     d="M508.12 785.094C513.764 784.471 522.555 784.536 528.417 784.433C546.498 784.16 564.582 784.462 582.644 785.341C673.203 789.138 758.164 803 843.268 835.558C857.657 841.062 871.131 847.578 885.127 853.907C875.702 851.639 866.063 848.498 856.583 846.035C833.774 840.175 810.826 834.874 787.758 830.137C698.57 812.465 609.052 807.893 518.388 809.153C511.971 809.774 502.525 809.748 495.767 810.001C483.138 810.525 470.514 811.15 457.896 811.877C421.664 814.165 385.51 817.547 349.482 822.019C279.832 830.914 214.085 843.928 145.83 860.079C124.064 865.23 102.666 872.118 80.8977 877.096C128.561 856.515 177.746 839.657 228.013 826.673C302.585 806.238 378.978 793.151 456.099 787.601C471.689 786.561 492.734 784.908 508.12 785.094Z"
     id="path7"
     style="fill:url(#linearGradient16)" /><defs
     id="defs8"><linearGradient
       id="gradient_1"
       gradientUnits="userSpaceOnUse"
       x1="779.67517"
       y1="779.30133"
       x2="709.42566"
       y2="875.94836"><stop
         offset="0"
         stop-color="#6FBC75"
         id="stop7" /><stop
         offset="1"
         stop-color="#4CAC88"
         id="stop8" /></linearGradient></defs><path
     fill="#11253F"
     d="M456.434 583.77C456.856 586.9 456.679 593.789 456.679 597.273L456.678 621.405L456.494 705.015C448.177 705.901 439.905 707.168 431.705 708.813L431.541 695.44C429.92 697.454 427.995 699.824 426.22 701.667C416.226 712.044 402.516 718.022 388.111 718.285C378.324 718.432 368.651 716.025 361.499 708.977C348.79 696.452 350.662 675.887 350.686 659.312L350.714 629.272C350.818 618.601 350.807 607.929 350.68 597.258C357.58 595.719 370.592 594.26 378.018 593.182C377.693 610.499 378.007 628.127 378.001 645.49C378.286 656.372 377.375 667.426 378.973 678.219C380.497 688.506 387.806 693.81 397.82 693.973C406.355 694.176 414.609 690.921 420.709 684.947C431.879 673.913 429.357 659.195 429.436 644.646L429.496 586.533L456.434 583.77Z"
     id="path9" /><path
     fill="#40BDBC"
     d="M519.407 397.351C524.327 398.939 558.426 411.716 560.255 414.009C560.38 415.182 560.499 416.355 560.612 417.53C560.64 426.599 559.986 437.253 559.636 446.403L556.941 511.82C535.033 505.299 508.85 508.744 491.533 524.306C483.815 531.242 480.732 537.193 477.305 546.758C473.201 547.246 469.921 547.768 465.859 548.547L519.407 397.351Z"
     id="path10" /><path
     fill="#11253F"
     d="M529.466 532.404C536.53 531.671 543.295 532.591 550.228 533.775C549.179 540.323 548.538 548.156 547.889 554.825C524.182 551.195 520.967 557.815 520.746 579.6C528.812 578.783 537.333 578.244 545.457 577.537L545.47 598.132C537.328 598.761 529.195 599.517 521.076 600.4C520.601 631.962 520.921 664.529 520.836 696.187L520.516 696.786C518.389 697.731 497.881 699.648 494.053 700.205C494.48 667.984 494.336 634.93 494.255 602.681C488.862 603.218 483.464 603.706 478.062 604.145C478.242 597.099 478.333 590.051 478.335 583.002C483.154 582.458 489.248 582.16 494.158 581.802C493.988 555.16 499.725 535.759 529.466 532.404Z"
     id="path11" /><path
     fill="#11253F"
     d="M605.268 528.027C611.6 527.283 619.031 528.522 625.297 529.54C624.082 536.146 623.361 543.577 622.593 550.279C619.649 549.593 616.645 549.187 613.624 549.068C596.792 548.48 597.073 560.835 597.009 573.365C604.889 572.84 612.767 572.275 620.642 571.669L620.662 591.726C612.903 592.324 605.15 592.998 597.404 593.75C597.042 624.733 597.165 656.122 597.272 687.12C597.144 687.663 597.264 687.292 596.663 688.118C588.486 689.385 579.758 689.863 571.267 691.146L571.329 595.545C566.485 595.796 560.907 596.372 556.019 596.772L556.108 576.782C561.242 576.46 566.179 576.182 571.296 575.564C570.969 549.912 576.286 530.817 605.268 528.027Z"
     id="path12" /><path
     fill="#11253f"
     d="m 584.27555,122.56691 c 0.92108,22.66393 1.1822,45.35374 1.77545,68.04009 l 1.897,93.162 3.222,157.901 c 0.424,21.46 0.474,42.723 1.122,64.219 -6.839,1.576 -9.384,2.539 -15.692,5.678 1.67,-126.524 4.42455,-262.50609 7.67555,-389.00009 z"
     id="path13"
     sodipodi:nodetypes="ccccccc" /><path
     fill="#67D3C6"
     d="M567.651 258.058C566.073 271.286 565.967 287.046 565.368 300.528L562.169 378.928L561.255 404.354C561.152 407.282 561.056 414.933 560.612 417.53C560.499 416.355 560.38 415.182 560.255 414.009C558.426 411.716 524.327 398.939 519.407 397.351C529.948 367.777 540.217 338.107 550.213 308.345C556.031 291.512 562.274 275.056 567.651 258.058Z"
     id="path14" /></svg>
