<?xml version="1.0" encoding="UTF-8" standalone="no"?>
<!-- Created with Inkscape (http://www.inkscape.org/) -->

<svg
   xmlns:svg="http://www.w3.org/2000/svg"
   xmlns="http://www.w3.org/2000/svg"
   width="62mm"
   height="186mm"
   viewBox="0 0 62 186"
   version="1.1"
   id="svg8">
  <g
     id="layer1"
     transform="translate(0,-111)">
    <circle
       style="fill:none;stroke:#bcbcbc;stroke-width:2.3690865;stroke-miterlimit:4;stroke-dasharray:none;stroke-opacity:1"
       id="path826"
       cx="32.184544"
       cy="140.81546"
       r="24" />
    <circle
       style="fill:none;stroke:#bcbcbc;stroke-width:2.3690865;stroke-miterlimit:4;stroke-dasharray:none;stroke-opacity:1"
       id="path826-4"
       cx="32.184544"
       cy="202.81546"
       r="24" />
    <circle
       style="fill:none;stroke:#bcbcbc;stroke-width:2.3690865;stroke-miterlimit:4;stroke-dasharray:none;stroke-opacity:1"
       id="path826-0"
       cx="32.184544"
       cy="264.81546"
       r="24" />
    <circle
       style="fill:#bcbcbc;fill-opacity:1;stroke:none;stroke-width:2;stroke-miterlimit:4;stroke-dasharray:none;stroke-opacity:1"
       id="path851"
       cx="32"
       cy="203.05478"
       r="13" />
    <circle
       style="fill:#2e83b8;fill-opacity:1;stroke:none;stroke-width:2;stroke-miterlimit:4;stroke-dasharray:none;stroke-opacity:1"
       id="path851-0"
       cx="32"
       cy="141"
       r="13" />
    <path
       style="fill:none;fill-opacity:1;stroke:none;stroke-width:9.54474831;stroke-miterlimit:4;stroke-dasharray:none;stroke-opacity:1"
       d="M 104.45141,196.78699 C 78.164265,191.49685 55.902095,173.92324 44.302469,149.3058 38.997018,138.04625 36.890498,129.86345 36.110998,117.48599 34.614826,93.728696 42.934105,71.314529 59.800515,53.660656 77.053719,35.60193 96.509805,27.288128 121.624,27.242791 c 18.54327,-0.03347 32.67975,4.134371 47.47717,13.997653 22.98215,15.318854 36.69218,39.694092 38.05541,67.659256 2.06426,42.34619 -27.53592,79.97392 -69.20646,87.9752 -9.04371,1.73652 -24.63632,1.69559 -33.49871,-0.0879 z m 29.37643,-35.69601 c 16.51457,-4.31104 29.56288,-17.27983 34.6556,-34.44442 1.98438,-6.68817 2.09002,-18.95166 0.22364,-25.96103 -3.36005,-12.619021 -13.64607,-25.499392 -24.92934,-31.217063 -30.20112,-15.30406 -66.205744,3.089302 -71.74811,36.653313 -3.374613,20.43632 7.901557,41.98789 26.865939,51.3475 11.404791,5.62868 22.741461,6.80403 34.932271,3.6217 z"
       id="path4520"
       transform="matrix(0.26458333,0,0,0.26458333,0,111)" />
    <path
       style="fill:none;fill-opacity:1;stroke:none;stroke-width:9.54474831;stroke-miterlimit:4;stroke-dasharray:none;stroke-opacity:1"
       d="m 103.94633,430.98096 c -26.420155,-5.6342 -48.110305,-22.84255 -59.643861,-47.31977 -9.919926,-21.05268 -11.12554,-42.93283 -3.575015,-64.88138 7.371782,-21.42897 25.425026,-41.13073 46.024897,-50.22762 47.483549,-20.9687 102.146809,4.44725 117.296219,54.53746 2.38537,7.887 2.74976,10.87626 2.82752,23.1959 0.10283,16.28926 -1.32467,23.26283 -7.47988,36.54055 -7.02189,15.14727 -16.49828,26.3653 -29.68248,35.13776 -19.30926,12.84795 -43.8156,17.69839 -65.7674,13.0171 z m 29.25911,-35.23118 c 8.62661,-2.24695 15.36125,-6.19432 22.38063,-13.11796 9.76994,-9.63669 14.52525,-21.06495 14.52525,-34.90798 0,-42.55488 -50.77329,-64.9515 -82.177859,-36.24949 -10.844349,9.91112 -15.968627,21.46507 -16.111085,36.32643 -0.306606,31.98579 30.445114,56.00731 61.383064,47.949 z"
       id="path4522"
       transform="matrix(0.26458333,0,0,0.26458333,0,111)" />
    <path
       style="fill:none;fill-opacity:1;stroke:none;stroke-width:9.54474831;stroke-miterlimit:4;stroke-dasharray:none;stroke-opacity:1"
       d="M 108.49202,666.30934 C 88.251397,662.90689 67.7236,651.08542 54.972421,635.48865 c -6.18244,-7.56213 -14.285141,-23.77036 -16.81432,-33.63451 -2.758959,-10.76032 -2.550393,-31.83983 0.417664,-42.21276 8.997348,-31.44442 32.495501,-54.39321 63.475195,-61.9912 9.41083,-2.30807 29.73525,-2.30807 39.14608,0 24.8564,6.09621 45.96295,22.89654 57.55139,45.8096 1.45906,2.88489 3.86458,9.24885 5.34561,14.14214 2.33461,7.71349 2.70465,10.77795 2.78205,23.03902 0.068,10.77191 -0.35658,15.82724 -1.7816,21.2132 -2.20145,8.32052 -8.21995,21.6858 -12.69268,28.1867 -12.2529,17.80898 -32.2465,30.95052 -53.81517,35.37202 -7.13746,1.46315 -23.7752,1.95877 -30.09462,0.89648 z"
       id="path4524"
       transform="matrix(0.26458333,0,0,0.26458333,0,111)" />
  </g>
</svg>
