<?xml version="1.0" encoding="utf-8"?>
<!-- Generator: Adobe Illustrator 17.0.0, SVG Export Plug-In . SVG Version: 6.00 Build 0)  -->
<!DOCTYPE svg PUBLIC "-//W3C//DTD SVG 1.1//EN" "http://www.w3.org/Graphics/SVG/1.1/DTD/svg11.dtd">
<svg version="1.1" id="Слой_1" xmlns="http://www.w3.org/2000/svg" xmlns:xlink="http://www.w3.org/1999/xlink" x="0px" y="0px"
	 width="128px" height="128px" viewBox="0 0 128 128" enable-background="new 0 0 128 128" xml:space="preserve">
<g>
	<g>
		<path d="M48.99,103.098c0-3.952-0.052-7.904,0.028-11.854c0.028-1.421-0.247-2.678-1.103-3.776
			c-3.519-4.517-6.883-9.172-10.634-13.489c-7.33-8.438-14.949-16.625-22.318-25.031c-4.828-5.507-9.483-11.193-12.761-17.804
			c-1.006-2.028-1.57-4.315-2.071-6.542c-0.487-2.161,0.436-4.091,2.129-5.367c2.367-1.785,4.807-3.568,7.452-4.874
			c7.959-3.932,16.533-5.939,25.22-7.495c12.335-2.21,24.782-2.859,37.272-2.262c14.526,0.694,28.845,2.748,42.463,8.159
			c3.236,1.286,6.361,3.008,9.263,4.941c4.168,2.776,4.929,5.641,3.225,10.366c-1.754,4.862-4.549,9.174-7.843,13.071
			c-7.493,8.865-15.22,17.532-22.81,26.316c-4.755,5.503-9.421,11.083-14.148,16.609c-2.547,2.978-3.656,6.265-3.475,10.303
			c0.308,6.878,0.021,13.78,0.127,20.669c0.038,2.459-0.877,4.355-2.938,5.371c-2.341,1.154-4.842,2.171-7.387,2.683
			c-5.053,1.018-10.079,0.555-14.839-1.571c-1.165-0.52-2.242-1.313-3.227-2.137c-1.159-0.969-1.651-2.297-1.636-3.85
			C49.016,111.388,48.99,107.243,48.99,103.098z M62.229,38.683c4.382,0,8.768,0.125,13.145-0.026
			c9.641-0.332,19.191-1.487,28.568-3.797c4.721-1.163,9.401-2.541,13.482-5.328c4.616-3.152,4.781-6.806,0.218-9.989
			c-2.536-1.768-5.368-3.253-8.264-4.339c-12.399-4.653-25.391-6.151-38.514-6.653c-8.041-0.307-16.082-0.085-24.1,0.787
			c-8.052,0.876-16.008,2.204-23.741,4.66c-4.185,1.329-8.283,2.892-11.788,5.634c-4.171,3.264-4.048,6.758,0.318,9.787
			c3.86,2.679,8.277,4.054,12.756,5.204C36.745,37.816,49.449,38.732,62.229,38.683z"/>
	</g>
</g>
</svg>
