<?xml version="1.0" encoding="UTF-8" standalone="no"?>
<svg
   xmlns="http://www.w3.org/2000/svg"
   width="62mm"
   height="186mm"
   viewBox="0 0 62 186"
   version="1.1"
   id="svg8">

  <g
     id="layer1"
     transform="translate(0,-111)">
    <circle
       style="fill:none;stroke:#bcbcbc;stroke-width:2.91615;stroke-miterlimit:4;stroke-dasharray:none;stroke-opacity:1"
       id="path826"
       cx="30.999996"
       cy="141.99998"
       r="29.541924" />
    <ellipse
       style="fill:none;stroke:#bcbcbc;stroke-width:2.91614;stroke-miterlimit:4;stroke-dasharray:none;stroke-opacity:1"
       id="path826-4"
       cx="30.999998"
       cy="204"
       rx="29.541927"
       ry="29.541929" />
    <ellipse
       style="fill:none;stroke:#bcbcbc;stroke-width:2.91614;stroke-miterlimit:4;stroke-dasharray:none;stroke-opacity:1"
       id="path826-0"
       cx="30.999998"
       cy="266"
       rx="29.541927"
       ry="29.541929" />
    <circle
       style="fill:#bcbcbc;fill-opacity:1;stroke:none;stroke-width:2.46183;stroke-miterlimit:4;stroke-dasharray:none;stroke-opacity:1"
       id="path851"
       cx="30.77284"
       cy="204.29457"
       r="16.001879" />
    <path
       style="fill:none;fill-opacity:1;stroke:none;stroke-width:3.10853;stroke-miterlimit:4;stroke-dasharray:none;stroke-opacity:1"
       d="M 25.401257,169.38916 C 16.840081,167.66627 9.5897547,161.9429 5.811998,153.92554 4.084123,150.25855 3.3980733,147.59355 3.1442064,143.56248 c -0.487272,-7.73727 2.2221439,-15.03707 7.7151826,-20.78658 5.619009,-5.88134 11.955452,-8.58899 20.134622,-8.60375 6.039158,-0.0111 10.643115,1.34646 15.462326,4.55874 7.484809,4.98904 11.949879,12.92755 12.393855,22.03522 0.672286,13.79127 -8.967876,26.04584 -22.539103,28.65169 -2.945348,0.56555 -8.023538,0.55222 -10.909832,-0.0287 z m 9.567291,-11.62543 c 5.378452,-1.40403 9.628014,-5.62771 11.286607,-11.21784 0.646272,-2.17819 0.680677,-6.17216 0.07283,-8.45499 -1.0943,-4.10973 -4.444242,-8.3046 -8.118967,-10.16673 -9.835878,-4.98421 -21.561834,1.00614 -23.366867,11.93722 -1.099041,6.65569 2.573373,13.6746 8.749678,16.72282 3.714302,1.83313 7.40642,2.21594 11.376712,1.17952 z"
       id="path4520" />
    <path
       style="fill:none;fill-opacity:1;stroke:none;stroke-width:3.10853;stroke-miterlimit:4;stroke-dasharray:none;stroke-opacity:1"
       d="M 25.236766,231.34464 C 16.632269,229.50969 9.568238,223.9053 5.8119982,215.93358 2.5812845,209.07716 2.188641,201.95124 4.6476901,194.80305 c 2.4008363,-6.97896 8.2804029,-13.39541 14.9893539,-16.3581 15.464404,-6.82906 33.267092,1.44838 38.200942,17.76173 0.776865,2.56863 0.895539,3.54217 0.920863,7.55443 0.0335,5.30506 -0.431416,7.57621 -2.43604,11.90049 -2.286883,4.93316 -5.373148,8.58664 -9.666968,11.44364 -6.288625,4.18431 -14.269831,5.76401 -21.419075,4.2394 z m 9.529084,-11.47407 c 2.809508,-0.73178 5.002839,-2.01735 7.288905,-4.27224 3.181867,-3.13847 4.730573,-6.86041 4.730573,-11.3688 0,-13.85925 -16.535806,-21.15336 -26.763622,-11.80572 -3.531778,3.22785 -5.20065,6.99073 -5.247046,11.83078 -0.09985,10.41711 9.915342,18.24041 19.99119,15.61598 z"
       id="path4522" />
    <path
       style="fill:none;fill-opacity:1;stroke:none;stroke-width:3.10853;stroke-miterlimit:4;stroke-dasharray:none;stroke-opacity:1"
       d="M 26.717203,293.66956 C 20.125251,292.56145 13.439773,288.71145 9.28698,283.6319 7.2734878,281.16908 4.6346063,275.89039 3.8109053,272.67784 2.9123696,269.17343 2.9802952,262.30826 3.9469297,258.93002 6.8771791,248.68923 14.530039,241.21528 24.619482,238.74077 c 3.064912,-0.7517 9.684154,-0.7517 12.749066,0 8.095213,1.98541 14.969177,7.45692 18.743292,14.91925 0.475185,0.93953 1.258614,3.01215 1.740954,4.60579 0.760334,2.51212 0.880849,3.51016 0.906055,7.50333 0.02214,3.50818 -0.116136,5.15461 -0.580228,6.9087 -0.716967,2.70982 -2.677068,7.06261 -4.133743,9.17981 -3.990515,5.80003 -10.502016,10.07996 -17.526483,11.51995 -2.324523,0.47652 -7.743089,0.63794 -9.801192,0.29196 z"
       id="path4524" />
  </g>
  <circle
     r="16.001879"
     cy="30.197647"
     cx="30.772772"
     id="path851-1"
     style="fill:#2e83b8;fill-opacity:1;stroke:none;stroke-width:2.46183;stroke-miterlimit:4;stroke-dasharray:none;stroke-opacity:1" />
</svg>
